<svg width="111" height="16" viewBox="0 0 111 16" fill="none" xmlns="http://www.w3.org/2000/svg">
<path d="M62.1817 15.3379H65.0029V9.24524H71.7862V6.79175H65.0029V2.99348H73.6058V0.545126H62.1817V15.3379Z" fill="white"/>
<path d="M80.0167 0.545126H77.1957V15.3379H86.1373V12.8895H80.0167V0.545126Z" fill="white"/>
<path d="M92.4366 0.545126H89.6156V15.3379H92.4366V0.545126Z" fill="white"/>
<path d="M105.285 8.06982H99.4474V2.99347H105.285C105.944 3.08442 106.546 3.39067 106.981 3.8565C107.416 4.32233 107.655 4.91677 107.655 5.53165C107.655 6.14652 107.416 6.74095 106.981 7.20678C106.546 7.67261 105.944 7.97887 105.285 8.06982ZM105.285 0.545126H96.6262V15.3379H99.4474V10.5182H105.285C106.688 10.4766 108.02 9.93305 108.997 9.00243C109.974 8.07181 110.52 6.82713 110.52 5.53165C110.52 4.23616 109.974 2.99148 108.997 2.06086C108.02 1.13024 106.688 0.586673 105.285 0.545126Z" fill="white"/>
<path d="M9.10703 13.3976C8.18115 13.3982 7.26866 13.1936 6.44633 12.8011C5.62401 12.4086 4.91591 11.8397 4.3816 11.1422C3.84729 10.4447 3.50241 9.63907 3.37595 8.79303C3.24949 7.94699 3.34517 7.08531 3.65494 6.28048C3.9647 5.47565 4.47948 4.75122 5.15598 4.16812C5.83248 3.58502 6.65091 3.16032 7.54242 2.92973C8.43392 2.69915 9.37243 2.66944 10.279 2.84309C11.1855 3.01675 12.0336 3.38869 12.7518 3.92763L14.5325 1.91044C13.2709 0.966726 11.7453 0.371976 10.1324 0.195082C8.51943 0.0181878 6.88516 0.266376 5.41884 0.910915C3.95252 1.55545 2.71415 2.56997 1.84716 3.83695C0.980161 5.10393 0.52002 6.57154 0.52002 8.06981C0.52002 9.56807 0.980161 11.0357 1.84716 12.3026C2.71415 13.5696 3.95252 14.5841 5.41884 15.2287C6.88516 15.8732 8.51943 16.1214 10.1324 15.9445C11.7453 15.7676 13.2709 15.1729 14.5325 14.2292L12.7518 12.2068C11.7208 12.9816 10.4313 13.404 9.10147 13.4028" fill="white"/>
<path d="M39.2779 0.545126H36.4569V15.3379H39.2779V0.545126Z" fill="white"/>
<path d="M54.8368 11.2316L46.2896 0.545126H43.4684V15.3379H46.2896V4.76943L54.8368 15.3379H57.6581V0.545126H54.8368V11.2316Z" fill="white"/>
<path d="M24.8932 2.60341C25.9888 2.60499 27.0613 2.89368 27.9859 3.43582C28.9105 3.97796 29.649 4.75126 30.1155 5.66563C30.582 6.58001 30.7573 7.59782 30.6208 8.60052C30.4844 9.60321 30.0419 10.5495 29.3449 11.3292H32.6837C33.5173 9.70404 33.7279 7.86595 33.281 6.11596C32.8341 4.36597 31.7562 2.80782 30.2239 1.69673C28.6915 0.585642 26.7955 -0.0125256 24.8464 0.000198894C22.8974 0.0129234 21.0107 0.635796 19.4956 1.76678L21.2707 3.78911C22.2991 3.01771 23.5844 2.59712 24.9099 2.59829" fill="white"/>
<path d="M24.8942 13.2643C23.7977 13.2648 22.7236 12.9774 21.7977 12.4356C20.8717 11.8939 20.132 11.1202 19.6651 10.205C19.1982 9.28988 19.0234 8.27103 19.161 7.26759C19.2987 6.26416 19.7432 5.31759 20.4425 4.53855H17.1038C16.2725 6.16302 16.0634 7.99956 16.5106 9.74789C16.9577 11.4962 18.0348 13.0529 19.5656 14.1633C21.0964 15.2737 22.9903 15.8722 24.9377 15.8609C26.8851 15.8495 28.7708 15.2291 30.2863 14.101L28.5112 12.0786C27.4835 12.8471 26.2004 13.2658 24.8775 13.2643" fill="white"/>
</svg>
